<?xml version="1.0" encoding="utf-8"?>
<!-- Generator: Adobe Illustrator 16.0.0, SVG Export Plug-In . SVG Version: 6.00 Build 0)  -->
<!DOCTYPE svg PUBLIC "-//W3C//DTD SVG 1.1//EN" "http://www.w3.org/Graphics/SVG/1.1/DTD/svg11.dtd">
<svg version="1.1" id="Calque_1" xmlns="http://www.w3.org/2000/svg" xmlns:xlink="http://www.w3.org/1999/xlink" x="0px" y="0px"
	 width="20px" height="20px" viewBox="0 0 20 20" enable-background="new 0 0 20 20" xml:space="preserve">
<polygon fill="none" stroke="#FFFFFF" stroke-miterlimit="10" points="14.439,19.484 5.293,19.484 5.293,7.336 9.866,4.625 
	14.439,7.336 "/>
<rect x="0.708" y="9.319" fill="none" stroke="#FFFFFF" stroke-miterlimit="10" width="4.585" height="10.166"/>
<rect x="14.708" y="9.316" fill="none" stroke="#FFFFFF" stroke-miterlimit="10" width="4.584" height="10.167"/>
<polygon fill="none" stroke="#FFFFFF" stroke-miterlimit="10" points="11.935,19.484 8.065,19.484 8.065,13.764 10,13.764 
	11.935,13.764 "/>
<line fill="none" stroke="#FFFFFF" stroke-miterlimit="10" x1="10" y1="19.484" x2="10" y2="13.764"/>
<circle fill="none" stroke="#FFFFFF" stroke-miterlimit="10" cx="10" cy="8.542" r="1.527"/>
<line fill="none" stroke="#FFFFFF" stroke-miterlimit="10" x1="7.167" y1="11.438" x2="8.235" y2="11.438"/>
<line fill="none" stroke="#FFFFFF" stroke-miterlimit="10" x1="9.167" y1="11.438" x2="10.235" y2="11.438"/>
<line fill="none" stroke="#FFFFFF" stroke-miterlimit="10" x1="11.09" y1="11.438" x2="12.158" y2="11.438"/>
<line fill="none" stroke="#FFFFFF" stroke-miterlimit="10" x1="1.598" y1="11.557" x2="2.666" y2="11.557"/>
<line fill="none" stroke="#FFFFFF" stroke-miterlimit="10" x1="3.467" y1="11.557" x2="4.535" y2="11.557"/>
<line fill="none" stroke="#FFFFFF" stroke-miterlimit="10" x1="1.598" y1="13.526" x2="2.666" y2="13.526"/>
<line fill="none" stroke="#FFFFFF" stroke-miterlimit="10" x1="3.468" y1="13.526" x2="4.536" y2="13.526"/>
<line fill="none" stroke="#FFFFFF" stroke-miterlimit="10" x1="1.599" y1="15.354" x2="2.667" y2="15.354"/>
<line fill="none" stroke="#FFFFFF" stroke-miterlimit="10" x1="3.468" y1="15.354" x2="4.536" y2="15.354"/>
<line fill="none" stroke="#FFFFFF" stroke-miterlimit="10" x1="1.599" y1="17.324" x2="2.667" y2="17.324"/>
<line fill="none" stroke="#FFFFFF" stroke-miterlimit="10" x1="3.469" y1="17.324" x2="4.536" y2="17.324"/>
<line fill="none" stroke="#FFFFFF" stroke-miterlimit="10" x1="15.53" y1="11.517" x2="16.598" y2="11.517"/>
<line fill="none" stroke="#FFFFFF" stroke-miterlimit="10" x1="17.4" y1="11.517" x2="18.469" y2="11.517"/>
<line fill="none" stroke="#FFFFFF" stroke-miterlimit="10" x1="15.53" y1="13.486" x2="16.599" y2="13.486"/>
<line fill="none" stroke="#FFFFFF" stroke-miterlimit="10" x1="17.4" y1="13.486" x2="18.469" y2="13.486"/>
<line fill="none" stroke="#FFFFFF" stroke-miterlimit="10" x1="15.53" y1="15.314" x2="16.599" y2="15.314"/>
<line fill="none" stroke="#FFFFFF" stroke-miterlimit="10" x1="17.401" y1="15.314" x2="18.469" y2="15.314"/>
<line fill="none" stroke="#FFFFFF" stroke-miterlimit="10" x1="15.531" y1="17.284" x2="16.599" y2="17.284"/>
<line fill="none" stroke="#FFFFFF" stroke-miterlimit="10" x1="17.402" y1="17.284" x2="18.469" y2="17.284"/>
<line fill="none" stroke="#FFFFFF" stroke-linecap="round" stroke-miterlimit="10" x1="9.866" y1="1.421" x2="9.866" y2="4.625"/>
<rect x="9.866" y="1.231" fill="none" stroke="#FFFFFF" stroke-linecap="round" stroke-miterlimit="10" width="3.853" height="1.638"/>
<polygon fill="none" stroke="#FFFFFF" stroke-linecap="round" stroke-linejoin="round" stroke-miterlimit="10" points="
	16.372,1.635 15.665,3 16.349,4.103 12.959,4.103 12.959,2.869 13.719,2.869 13.719,1.635 "/>
</svg>
