<?xml version="1.0" encoding="utf-8"?>
<!-- Generator: Adobe Illustrator 16.0.0, SVG Export Plug-In . SVG Version: 6.00 Build 0)  -->
<!DOCTYPE svg PUBLIC "-//W3C//DTD SVG 1.1//EN" "http://www.w3.org/Graphics/SVG/1.1/DTD/svg11.dtd">
<svg version="1.1" id="Calque_1" xmlns="http://www.w3.org/2000/svg" xmlns:xlink="http://www.w3.org/1999/xlink" x="0px" y="0px"
	 width="20px" height="20px" viewBox="0 0 16 16" enable-background="new 0 0 16 16" xml:space="preserve">
<g>
	<g>
		<path fill="none" stroke="#ffffff" stroke-miterlimit="10" d="M7.774,1.761c0,0-3.182-0.954-4.585-0.206v11.304
			c0,0,2.976-0.898,4.585,0V1.761z"/>
		<path fill="none" stroke="#ffffff" stroke-linejoin="round" stroke-miterlimit="10" d="M3.345,1.668H1.224c0,0,0,12.414,0,13.331
			c2.078-0.88,5.241-0.6,6.551,0c0-0.692,0-2.775,0-2.775"/>
	</g>
	<g>
		<path fill="none" stroke="#ffffff" stroke-miterlimit="10" d="M8.226,1.761c0,0,3.183-0.954,4.587-0.206v11.304
			c0,0-2.978-0.898-4.587,0V1.761z"/>
		<path fill="none" stroke="#ffffff" stroke-linejoin="round" stroke-miterlimit="10" d="M12.656,1.668h2.121c0,0,0,12.414,0,13.331
			c-2.077-0.88-5.241-0.6-6.552,0c0-0.692,0-2.775,0-2.775"/>
	</g>
</g>
</svg>
