<?xml version="1.0" encoding="utf-8"?>
<!-- Generator: Adobe Illustrator 16.0.0, SVG Export Plug-In . SVG Version: 6.00 Build 0)  -->
<!DOCTYPE svg PUBLIC "-//W3C//DTD SVG 1.1//EN" "http://www.w3.org/Graphics/SVG/1.1/DTD/svg11.dtd">
<svg version="1.1" id="Calque_1" xmlns="http://www.w3.org/2000/svg" xmlns:xlink="http://www.w3.org/1999/xlink" x="0px" y="0px"
	 width="20px" height="20px" viewBox="0 0 32 32" enable-background="new 0 0 32 32" xml:space="preserve">
<polygon fill="none" stroke="#FFFFFF" stroke-linejoin="round" stroke-miterlimit="10" points="6.511,8.087 9.318,10.689 
	3.991,16.812 1.108,14.431 "/>
<path fill="none" stroke="#FFFFFF" stroke-linecap="round" stroke-linejoin="round" stroke-miterlimit="10" d="M23.266,10.986
	l-6.146,0.823c0,0-2.58,1.646-3.853,2.305c-1.273,0.659-0.783,1.744-0.587,2.041c0.196,0.295,0.85,0.955,2.384,0.166
	c1.533-0.792,2.838-1.417,2.838-1.417l2.019,2.605c0,0,2.289-0.006,3.172-2.157"/>
<line fill="none" stroke="#FFFFFF" stroke-linecap="round" stroke-linejoin="round" stroke-miterlimit="10" x1="9.318" y1="10.986" x2="15.36" y2="12.903"/>
<path fill="none" stroke="#FFFFFF" stroke-linecap="round" stroke-linejoin="round" stroke-miterlimit="10" d="M17.901,14.903
	c5.474,7.063,5.876,7.584,7.475,9.91c0.314,0.605,0.398,1.387-0.219,1.913c-1.045,0.889-2.198-0.434-2.198-0.434l-4.646-5.826
	c0,0,4.336,5.436,4.973,6.329c0.066,1.044-0.319,1.401-0.685,1.671c-0.369,0.269-1.061,0.323-1.498,0.04
	c-0.115-0.078-0.215-0.16-0.299-0.239c-0.393-0.362-5.84-7.075-5.84-7.075l5.698,6.928c0,0,0.648,0.951-0.166,1.675
	c-1.062,0.943-2.742-1.096-2.742-1.096"/>
<line fill="none" stroke="#FFFFFF" stroke-linecap="round" stroke-linejoin="round" stroke-miterlimit="10" x1="4.821" y1="15.858" x2="6.72" y2="20.692"/>
<path fill="none" stroke="#FFFFFF" stroke-linecap="round" stroke-linejoin="round" stroke-miterlimit="10" d="M6.108,21.227
	c-0.473,0.412-0.43,1.246,0.1,1.862l0,0c0.527,0.612,1.338,0.774,1.81,0.366l1.532-1.337c0.472-0.412,0.427-1.242-0.099-1.86l0,0
	c-0.528-0.615-1.339-0.777-1.812-0.369L6.108,21.227z"/>
<path fill="none" stroke="#FFFFFF" stroke-linecap="round" stroke-linejoin="round" stroke-miterlimit="10" d="M11.036,26.673
	c-0.473,0.416-0.43,1.246,0.099,1.866l0,0c0.526,0.61,1.337,0.773,1.81,0.364l1.531-1.337c0.471-0.412,0.43-1.244-0.099-1.858l0,0
	c-0.527-0.619-1.337-0.779-1.809-0.372L11.036,26.673z"/>
<path fill="none" stroke="#FFFFFF" stroke-linecap="round" stroke-linejoin="round" stroke-miterlimit="10" d="M8.129,24.36
	c-0.623,0.549-0.701,1.486-0.173,2.104l0,0c0.527,0.61,1.459,0.666,2.081,0.128l2.017-1.76c0.621-0.543,0.701-1.479,0.173-2.096l0,0
	c-0.527-0.619-1.46-0.673-2.082-0.136L8.129,24.36z"/>
<path fill="none" stroke="#FFFFFF" stroke-linecap="round" stroke-linejoin="round" stroke-miterlimit="10" d="M13.939,28.566
	c-0.446,0.391-0.38,1.205,0.149,1.822l0,0c0.527,0.614,1.315,0.793,1.759,0.408l1.448-1.26c0.44-0.392,0.378-1.202-0.15-1.816l0,0
	c-0.529-0.617-1.317-0.798-1.763-0.412L13.939,28.566z"/>
<polyline fill="none" stroke="#FFFFFF" stroke-linecap="round" stroke-linejoin="round" stroke-miterlimit="10" points="
	27.188,9.824 25.908,8.087 22.81,10.188 27.867,17.959 31,15.95 29.625,13.781 "/>
<line fill="none" stroke="#FFFFFF" stroke-linecap="round" stroke-linejoin="round" stroke-miterlimit="10" x1="27.573" y1="17.509" x2="24.212" y2="22.232"/>
</svg>
