<?xml version="1.0" encoding="utf-8"?>
<!-- Generator: Adobe Illustrator 16.0.0, SVG Export Plug-In . SVG Version: 6.00 Build 0)  -->
<!DOCTYPE svg PUBLIC "-//W3C//DTD SVG 1.1//EN" "http://www.w3.org/Graphics/SVG/1.1/DTD/svg11.dtd">
<svg version="1.1" id="Calque_1" xmlns="http://www.w3.org/2000/svg" xmlns:xlink="http://www.w3.org/1999/xlink" x="0px" y="0px"
	 width="20px" height="20px" viewBox="0 0 20 20" enable-background="new 0 0 20 20" xml:space="preserve">
<g>
	<path fill="none" stroke="#FFFFFF" stroke-miterlimit="10" d="M16.292,17.616c0,0.991-0.803,1.793-1.793,1.793H5.188
		c-0.989,0-1.792-0.802-1.792-1.793V8.161c0-0.99,0.803-1.792,1.792-1.792h9.311c0.99,0,1.793,0.802,1.793,1.792V17.616z"/>
	<path fill="none" stroke="#FFFFFF" stroke-miterlimit="10" d="M13.713,16.103c0,0.949-0.771,1.719-1.718,1.719H7.694
		c-0.949,0-1.719-0.77-1.719-1.719l0,0c0-0.949,0.77-1.72,1.719-1.72h2.15h2.15C12.942,14.383,13.713,15.153,13.713,16.103
		L13.713,16.103z"/>
	<line fill="none" stroke="#FFFFFF" stroke-miterlimit="10" x1="9.845" y1="17.821" x2="9.845" y2="14.383"/>
	<line fill="none" stroke="#FFFFFF" stroke-miterlimit="10" x1="7.956" y1="14.383" x2="7.956" y2="17.821"/>
	<line fill="none" stroke="#FFFFFF" stroke-miterlimit="10" x1="11.703" y1="14.383" x2="11.703" y2="17.733"/>
	<path fill="none" stroke="#FFFFFF" stroke-miterlimit="10" d="M8.451,9.819c0,0.828-0.671,1.498-1.499,1.498l0,0
		c-0.828,0-1.499-0.67-1.499-1.498l0,0c0-0.828,0.671-1.499,1.499-1.499l0,0C7.78,8.32,8.451,8.991,8.451,9.819L8.451,9.819z"/>
	<path fill="none" stroke="#FFFFFF" stroke-miterlimit="10" d="M14.444,9.819c0,0.828-0.671,1.498-1.499,1.498l0,0
		c-0.828,0-1.5-0.67-1.5-1.498l0,0c0-0.828,0.672-1.499,1.5-1.499l0,0C13.773,8.321,14.444,8.991,14.444,9.819L14.444,9.819z"/>
	<path fill="none" stroke="#FFFFFF" stroke-miterlimit="10" d="M0.813,15.932c0,0.593,0.575,1.074,1.284,1.074l0,0
		c0.709,0,1.284-0.481,1.284-1.074v-4.421c0-0.593-0.575-1.074-1.284-1.074l0,0c-0.709,0-1.284,0.481-1.284,1.074V15.932z"/>
	<path fill="none" stroke="#FFFFFF" stroke-miterlimit="10" d="M16.619,15.932c0,0.593,0.575,1.074,1.284,1.074l0,0
		c0.709,0,1.283-0.481,1.283-1.074v-4.421c0-0.593-0.574-1.074-1.283-1.074l0,0c-0.709,0-1.284,0.481-1.284,1.074V15.932z"/>
</g>
<line fill="none" stroke="#FFFFFF" stroke-miterlimit="10" x1="9.883" y1="6.486" x2="9.883" y2="4.127"/>
<path fill="none" stroke="#FFFFFF" stroke-miterlimit="10" d="M11.121,3.09c0,0.684-0.554,1.238-1.238,1.238l0,0
	c-0.684,0-1.238-0.554-1.238-1.238l0,0c0-0.684,0.554-1.238,1.238-1.238l0,0C10.567,1.852,11.121,2.406,11.121,3.09L11.121,3.09z"/>
</svg>
